<svg width="1336" height="120" viewBox="0 0 1336 120" fill="none" xmlns="http://www.w3.org/2000/svg">
<path fill-rule="evenodd" clip-rule="evenodd" d="M1335.99 59.3473L1303.7 56.0691C1272.53 52.7903 1209.07 46.2332 1145.61 56.1615C1081.05 66.0904 1017.61 92.5042 954.153 102.432C890.701 112.361 827.24 105.804 763.774 92.6524C700.309 79.5012 635.726 59.7564 572.268 59.7935C508.81 59.8305 445.364 79.6501 381.906 79.6872C318.448 79.7242 254.979 59.9788 190.41 63.3136C126.954 66.6478 63.5113 93.0615 32.3468 106.268L0.0689645 119.475L-0.000371028 0.780265L32.2851 0.761405C63.4574 0.743196 126.915 0.706127 190.373 0.669058C254.944 0.631339 318.402 0.59427 381.86 0.557201C445.318 0.520133 508.776 0.483064 572.233 0.445995C635.691 0.408926 700.262 0.371207 763.72 0.334138C827.178 0.297069 890.636 0.260001 954.094 0.222932C1017.55 0.185863 1081.01 0.148794 1145.58 0.111075C1209.04 0.0740063 1272.5 0.0369374 1303.67 0.0187282L1335.95 -0.000131364L1335.99 59.3473Z" fill="#FCF1E6"/>
</svg>
