<svg width="20" height="20" viewBox="0 0 20 20" fill="none" xmlns="http://www.w3.org/2000/svg">
<path d="M14.143 12.8692C13.1935 13.8393 11.9858 14.9954 10.5182 16.3385C10.5178 16.3389 10.5174 16.3393 10.5169 16.3396L10.0003 16.8058L9.48371 16.3396C9.48328 16.3392 9.48286 16.3389 9.48244 16.3385C8.01481 14.9954 6.80714 13.8393 5.85766 12.8692C4.90923 11.9001 4.16212 11.0431 3.61082 10.2968C3.05836 9.54898 2.68753 8.89353 2.48018 8.32804C2.27037 7.75583 2.16699 7.18205 2.16699 6.60433C2.16699 5.47928 2.53973 4.5637 3.28096 3.82247C4.02335 3.08008 4.93254 2.7085 6.04199 2.7085C6.75092 2.7085 7.39952 2.87541 7.99671 3.20786C8.59703 3.54206 9.12967 4.0296 9.59184 4.68434L9.98085 5.23544L10.395 4.70297C10.9473 3.99281 11.5152 3.49266 12.0929 3.17923C12.6718 2.86519 13.2911 2.7085 13.9587 2.7085C15.0681 2.7085 15.9773 3.08008 16.7197 3.82247C17.4609 4.5637 17.8337 5.47928 17.8337 6.60433C17.8337 7.18205 17.7303 7.75583 17.5205 8.32804C17.3131 8.89353 16.9423 9.54898 16.3898 10.2968C15.8385 11.0431 15.0914 11.9001 14.143 12.8692ZM9.6618 16.2015L10.0005 16.513L10.339 16.2013C11.7453 14.9064 12.9079 13.7928 13.8253 12.8614C14.7432 11.9295 15.4805 11.1047 16.0319 10.3885C16.5822 9.67385 16.9867 9.01459 17.2254 8.414C17.4622 7.81807 17.5837 7.21391 17.5837 6.60433C17.5837 5.57115 17.2502 4.68653 16.5643 3.99246C15.8768 3.29673 14.9936 2.9585 13.9587 2.9585C13.1394 2.9585 12.3789 3.21386 11.6884 3.70819C11.0763 4.14641 10.5797 4.73489 10.1925 5.4585H9.78955C9.41334 4.74663 8.92342 4.16311 8.31524 3.72079C7.62473 3.2186 6.86324 2.9585 6.04199 2.9585C5.00706 2.9585 4.12389 3.29673 3.43635 3.99246C2.75045 4.68653 2.41699 5.57115 2.41699 6.60433C2.41699 7.2138 2.53837 7.82073 2.77446 8.42239C3.0128 9.02978 3.41694 9.696 3.96728 10.4179C4.52023 11.1432 5.26258 11.9695 6.18844 12.8954C7.11167 13.8186 8.26987 14.9209 9.6618 16.2015Z" fill="#FF9F18" stroke="#FF9F18"/>
</svg>
