<svg width="24" height="24" viewBox="0 0 24 24" fill="none" xmlns="http://www.w3.org/2000/svg">
<g clip-path="url(#clip0_320_1735)">
<path d="M11.125 18.4167H12.875V13.8125H17.8333V12.1875H12.875V7.58333H11.125V12.1875H6.16667V13.8125H11.125V18.4167ZM3.25 22.75C2.78333 22.75 2.375 22.5875 2.025 22.2625C1.675 21.9375 1.5 21.5583 1.5 21.125V4.875C1.5 4.44167 1.675 4.0625 2.025 3.7375C2.375 3.4125 2.78333 3.25 3.25 3.25H20.75C21.2167 3.25 21.625 3.4125 21.975 3.7375C22.325 4.0625 22.5 4.44167 22.5 4.875V21.125C22.5 21.5583 22.325 21.9375 21.975 22.2625C21.625 22.5875 21.2167 22.75 20.75 22.75H3.25ZM3.25 21.125H20.75V4.875H3.25V21.125ZM3.25 4.875V21.125V4.875Z" fill="black"/>
</g>
<defs>
<clipPath id="clip0_320_1735">
<rect width="24" height="24" fill="white"/>
</clipPath>
</defs>
</svg>
