<svg width="31" height="33" viewBox="0 0 31 33" fill="none" xmlns="http://www.w3.org/2000/svg">
<g clip-path="url(#clip0_320_1732)">
<path d="M3.32645 25C2.39715 25 1.61042 24.6696 0.966253 24.0087C0.322085 23.3479 0 22.5408 0 21.5875V17.525H4.02342V-1L5.92424 0.95L7.82507 -1L9.69421 0.95L11.595 -1L13.4959 0.95L15.3967 -1L17.2975 0.95L19.1983 -1L21.0992 0.95L23 -1V21.5875C23 22.5408 22.6779 23.3479 22.0337 24.0087C21.3896 24.6696 20.6028 25 19.6736 25H3.32645ZM19.6736 23.05C20.096 23.05 20.4392 22.9146 20.7032 22.6437C20.9672 22.3729 21.0992 22.0208 21.0992 21.5875V2.25H5.92424V17.525H18.2479V21.5875C18.2479 22.0208 18.3799 22.3729 18.6439 22.6437C18.9079 22.9146 19.2511 23.05 19.6736 23.05ZM7.6033 7.385V5.435H15.2066V7.385H7.6033ZM7.6033 11.74V9.79H15.2066V11.74H7.6033ZM18.1529 7.385C17.8994 7.385 17.6777 7.2875 17.4876 7.0925C17.2975 6.8975 17.2025 6.67 17.2025 6.41C17.2025 6.15 17.2975 5.9225 17.4876 5.7275C17.6777 5.5325 17.8994 5.435 18.1529 5.435C18.4063 5.435 18.6281 5.5325 18.8182 5.7275C19.0083 5.9225 19.1033 6.15 19.1033 6.41C19.1033 6.67 19.0083 6.8975 18.8182 7.0925C18.6281 7.2875 18.4063 7.385 18.1529 7.385ZM18.1529 11.5775C17.8994 11.5775 17.6777 11.48 17.4876 11.285C17.2975 11.09 17.2025 10.8625 17.2025 10.6025C17.2025 10.3425 17.2975 10.115 17.4876 9.92C17.6777 9.725 17.8994 9.6275 18.1529 9.6275C18.4063 9.6275 18.6281 9.725 18.8182 9.92C19.0083 10.115 19.1033 10.3425 19.1033 10.6025C19.1033 10.8625 19.0083 11.09 18.8182 11.285C18.6281 11.48 18.4063 11.5775 18.1529 11.5775ZM3.29477 23.05H16.3471V19.475H1.90083V21.5875C1.90083 22.0208 2.03283 22.3729 2.29683 22.6437C2.56084 22.9146 2.89348 23.05 3.29477 23.05ZM1.90083 23.05V19.475V23.05Z" fill="black"/>
</g>
<defs>
<clipPath id="clip0_320_1732">
<rect width="31" height="33" fill="white"/>
</clipPath>
</defs>
</svg>
